<mxfile host="app.diagrams.net" modified="2023-11-16T03:22:05.234Z" agent="Mozilla/5.0 (X11; Linux x86_64; rv:109.0) Gecko/20100101 Firefox/119.0" etag="oz-kcXVYb641bVH1WOkG" version="22.1.2" type="github">
  <diagram name="Page-1" id="AEgVBexhgDKJNE-smwLf">
    <mxGraphModel dx="856" dy="486" grid="1" gridSize="10" guides="1" tooltips="1" connect="1" arrows="1" fold="1" page="1" pageScale="1" pageWidth="850" pageHeight="1100" math="0" shadow="0">
      <root>
        <mxCell id="0" />
        <mxCell id="1" parent="0" />
      </root>
    </mxGraphModel>
  </diagram>
</mxfile>
